<svg width="19" height="13" viewBox="0 0 19 13" fill="none" xmlns="http://www.w3.org/2000/svg">
<path fill-rule="evenodd" clip-rule="evenodd" d="M18.294 0.21934C18.4345 0.359965 18.5134 0.550589 18.5134 0.74934C18.5134 0.948091 18.4345 1.13871 18.294 1.27934L6.79402 12.7793C6.72339 12.8499 6.63937 12.9057 6.54689 12.9434C6.45442 12.981 6.35535 12.9999 6.2555 12.9988C6.15565 12.9976 6.05703 12.9766 5.96542 12.9369C5.87381 12.8971 5.79106 12.8395 5.72202 12.7673L0.222024 7.01734C0.150859 6.9468 0.0945497 6.86272 0.0564214 6.77006C0.0182931 6.6774 -0.000881135 6.57803 3.10845e-05 6.47784C0.000943304 6.37764 0.0219235 6.27865 0.0617326 6.18669C0.101542 6.09474 0.159373 6.0117 0.23181 5.94247C0.304248 5.87324 0.389823 5.81922 0.483483 5.78362C0.577143 5.74801 0.676988 5.73153 0.777122 5.73516C0.877257 5.73878 0.97565 5.76243 1.06649 5.80472C1.15733 5.847 1.23878 5.90706 1.30602 5.98134L6.27602 11.1763L17.234 0.21934C17.3746 0.0788894 17.5653 0 17.764 0C17.9628 0 18.1534 0.0788894 18.294 0.21934Z" fill="#B4B4B4"/>
</svg>
