<svg width="36" height="30" viewBox="0 0 36 30" fill="none" xmlns="http://www.w3.org/2000/svg">
<path d="M23.8059 17.4292C23.8059 20.6308 21.2015 23.2352 18 23.2352C14.7985 23.2352 12.1951 20.6308 12.1951 17.4292C12.1951 14.2277 14.7985 11.6233 18 11.6233C21.2015 11.6233 23.8059 14.2287 23.8059 17.4292ZM36 9.18508V25.6754C36 27.8737 34.2176 29.6561 32.0192 29.6561H3.98076C1.78238 29.6561 0 27.8737 0 25.6754V9.18508C0 6.9867 1.78238 5.20432 3.98076 5.20432H8.87709V3.82698C8.87709 1.90327 10.4356 0.343811 12.3603 0.343811H23.6397C25.5644 0.343811 27.1229 1.90327 27.1229 3.82698V5.20332H32.0192C34.2176 5.20432 36 6.9867 36 9.18508ZM26.7915 17.4292C26.7915 12.5817 22.8476 8.63772 18 8.63772C13.1534 8.63772 9.20949 12.5817 9.20949 17.4292C9.20949 22.2768 13.1534 26.2207 18 26.2207C22.8476 26.2207 26.7915 22.2768 26.7915 17.4292Z" fill="#736565"/>
</svg>
