<svg width="18" height="18" viewBox="0 0 18 18" fill="none" xmlns="http://www.w3.org/2000/svg">
<path d="M17.8083 16.8995L1.09685 0.188004C0.84618 -0.0626681 0.438677 -0.0626681 0.188004 0.188004C-0.0626681 0.438677 -0.0626681 0.84618 0.188004 1.09685L4.23218 5.14232H3.85553C3.45703 5.14232 3.10994 5.32229 2.87855 5.6051C2.68573 5.82363 2.57003 6.1193 2.57003 6.42782V11.5698C2.57003 12.2768 3.14851 12.8553 3.85553 12.8553H6.83789L13.0983 17.8559C13.214 17.9459 13.3554 17.9973 13.4968 17.9973C13.5868 17.9973 13.6896 17.9716 13.7796 17.933C13.9981 17.8302 14.1395 17.5988 14.1395 17.3546V15.0497L16.8982 17.8083C17.0242 17.9343 17.1887 17.9973 17.3533 17.9973C17.5178 17.9973 17.6824 17.9343 17.8083 17.8096C18.059 17.5577 18.059 17.1514 17.8083 16.8995Z" fill="#B4B4B4"/>
</svg>
